<svg id="Layer_1" data-name="Layer 1" xmlns="http://www.w3.org/2000/svg" viewBox="0 0 311.89 300"><defs><style>.cls-1{fill:#fff;}</style></defs><title>ISRO</title><path class="cls-1" d="M299.33,217.36H283.42a1.19,1.19,0,0,1-1.19-1.19V201.79h15.92a1.18,1.18,0,0,1,1.18,1.19Zm2.93-24.14H273.67v27a5.68,5.68,0,0,0,5.68,5.68h28.59V198.89a5.67,5.67,0,0,0-5.67-5.67Z"/><path class="cls-1" d="M170.47,181.19v6.66h38.66c-15,0-20.5,20.52-20.5,20.52,31.19,0,31.08,10.39,31.08,10.39H197l-7.56,7.48h26.32c12.37-9,11.32-14,11.32-14a7.34,7.34,0,0,0-.5-2.66c-1.73-4.4-6.93-6.44-11.14-7.61-5.48-1.52-10.92-1.49-16.57-1.62l1.61-2.6s2.35-4.93,7-4.14c5,.68,15.29,6.61,15.29,6.61l7.5-7.84a79.91,79.91,0,0,0-8.61-4.61h90.21v-6.57Z"/><rect class="cls-1" x="175.47" y="193.04" width="10.03" height="33.23"/><path class="cls-1" d="M262,194.29s-7.19-2.5-17.42,6.87V193h-10v33.2h10V203.58s10.93-5.29,15.12,2.55c0,0,1.24,2.52.95,7.28l8-7.67S269.32,196.08,262,194.29Z"/><circle class="cls-1" cx="180.49" cy="173.07" r="5.52"/><polygon class="cls-1" points="94.88 50.46 71.08 44.93 63.96 59.08 87.86 64.42 94.88 50.46"/><polygon class="cls-1" points="117.14 71.25 124.16 57.28 100.19 51.72 93.16 65.68 117.14 71.25"/><polygon class="cls-1" points="178.03 69.66 171.36 83.73 195.4 89.32 202.22 75.28 178.03 69.66"/><polygon class="cls-1" points="207.26 76.45 200.38 90.5 224.49 96.1 231.28 82.03 207.26 76.45"/><path class="cls-1" d="M129.86,174.69a27.47,27.47,0,0,0-3.18-5.83,13.25,13.25,0,0,0-10-5.57,16.87,16.87,0,0,0-2.66,0c-.09,0-1,0-1,.12l-3,7.53c13.1-3.61,16.12,10.25,16.12,10.25H0v6.66H30.25v3.69a26.5,26.5,0,0,0-7.63-1.45c-18.63,0-18.56,15.6-18.56,15.6a16.85,16.85,0,0,0,2.69,8.66,8.21,8.21,0,0,1,1.13-.61,24.58,24.58,0,0,1,9-1.74c4.08-.17,8.33.06,12.13,1.74a8.18,8.18,0,0,1,3.31,2.41c1.14,1.49.87,3.1-.2,4.67-2,3-6.21,3.16-9.38,2.39-6.34-1.53-6.07-8.81-6.07-8.81l-8.52,5.71c3.15,5.75,10.61,7.58,10.61,7.58l6.59,9.81h9.78l-7.44-9.81c8.85,0,14.15-4.55,14.15-11.73a8.68,8.68,0,0,0-2.13-5.35c-4-5.08-10.93-7.3-17.16-7.28a34.92,34.92,0,0,0-14.39,3,10.7,10.7,0,0,1,5.54-7.79c5.45-3,12.49-2.13,18.15-.28a24.11,24.11,0,0,1,8.48,4.51V187.82H60.13l-8.24,3.76c6.35,7.39,6,13.87,6,13.87,0,4.76-3.3,4.69-3.3,4.69l-6.62-8.57-4.33,3.81,14,20.86h9.46L57.3,213.66a8.18,8.18,0,0,0,7.17-3.47h0c9.28,4.05,14.6-1,14.6-1v17.09h10V187.82h21.34l-8.21,3.76c6.34,7.39,6,13.87,6,13.87,0,4.76-3.3,4.69-3.3,4.69l-6.62-8.57L94,205.38l14,20.86h9.46l-9.75-12.62c10,0,9.3-11.82,9.3-11.82,0-8.16-3.35-12.56-4.7-14h11.68v38.45h10V187.82h5.2v-6.63h-7.25A35.92,35.92,0,0,0,129.86,174.69ZM79.07,199.44S76.57,207,66,207h0a17,17,0,0,0,.64-5.16c0-8.16-3.35-12.56-4.7-14H79.07Z"/><polygon class="cls-1" points="138.97 100.39 162.99 300 163.42 0 77.16 174.69 138.97 100.39"/></svg>