<?xml version="1.0" encoding="UTF-8"?>
<svg xmlns="http://www.w3.org/2000/svg" xmlns:xlink="http://www.w3.org/1999/xlink" viewBox="0 0 50 50" width="50px" height="50px">
<g id="surface2319545">
<path style=" stroke:none;fill-rule:nonzero;fill:rgb(100%,100%,100%);fill-opacity:1;" d="M 25 1 C 15.621094 1 8 8.621094 8 18 C 8 21.933594 9.339844 25.5625 11.578125 28.441406 C 11.578125 28.441406 11.578125 28.445312 11.582031 28.445312 C 12.882812 30.199219 15.539062 33.445312 17.984375 37.027344 C 20.433594 40.617188 22.609375 44.578125 22.949219 47.257812 C 22.949219 47.261719 22.949219 47.265625 22.949219 47.269531 C 23.085938 48.257812 23.945312 49 24.941406 49 C 25.933594 49 26.8125 48.253906 26.933594 47.25 C 27.265625 44.644531 29.34375 40.84375 31.730469 37.355469 C 34.113281 33.863281 36.753906 30.640625 38.152344 28.78125 C 38.140625 28.792969 38.1875 28.726562 38.214844 28.699219 C 40.578125 25.777344 42 22.050781 42 18 C 42 8.621094 34.378906 1 25 1 Z M 25 3 C 25.609375 3 26.1875 3.109375 26.777344 3.179688 L 19.855469 11.632812 L 14.492188 7.296875 C 17.199219 4.644531 20.898438 3 25 3 Z M 29.011719 3.605469 C 33.078125 4.738281 36.414062 7.507812 38.304688 11.191406 L 32.949219 17.738281 C 32.800781 13.457031 29.316406 10 25 10 C 24.480469 10 24.027344 10.203125 23.535156 10.296875 Z M 13.199219 8.824219 L 18.589844 13.179688 L 10.792969 22.710938 C 10.304688 21.226562 10 19.652344 10 18 C 10 14.523438 11.222656 11.363281 13.199219 8.824219 Z M 25 12 C 28.332031 12 31 14.667969 31 18 C 31 21.332031 28.332031 24 25 24 C 21.667969 24 19 21.332031 19 18 C 19 14.667969 21.667969 12 25 12 Z M 39.175781 13.285156 C 39.667969 14.773438 40 16.339844 40 18 C 40 21.585938 38.742188 24.871094 36.652344 27.449219 C 36.632812 27.472656 36.613281 27.5 36.597656 27.523438 C 36.664062 27.425781 36.628906 27.476562 36.550781 27.578125 C 35.21875 29.355469 32.527344 32.640625 30.074219 36.222656 C 27.625 39.808594 25.367188 43.660156 24.945312 47.003906 C 24.945312 47.007812 24.945312 47.007812 24.945312 47.011719 C 24.949219 47.007812 24.964844 47 24.9375 47 C 24.933594 47 24.929688 47.003906 24.929688 46.992188 C 24.519531 43.785156 22.398438 40.101562 20.078125 36.628906 Z M 17.046875 18.230469 C 17.175781 22.527344 20.671875 26 25 26 C 25.503906 26 25.945312 25.800781 26.425781 25.710938 L 18.898438 34.910156 C 16.648438 31.734375 14.253906 28.695312 13.175781 27.234375 C 13.167969 27.226562 13.164062 27.222656 13.160156 27.214844 C 12.566406 26.457031 12.210938 25.539062 11.773438 24.675781 Z M 17.046875 18.230469 "/>
</g>
</svg>
